<svg width="36" height="36" viewBox="0 0 36 36" fill="none" xmlns="http://www.w3.org/2000/svg">
<g clip-path="url(#clip0_2543_3808)">
<path opacity="0.6" d="M18.0824 21.0993C18.0824 25.5058 14.5102 29.078 10.1037 29.078C5.69719 29.078 2.125 25.5058 2.125 21.0993C2.125 16.6928 5.69719 13.1206 10.1037 13.1206C14.5102 13.1206 18.0824 16.6928 18.0824 21.0993Z" fill="url(#paint0_linear_2543_3808)" stroke="url(#paint1_linear_2543_3808)" stroke-width="2"/>
<path opacity="0.4" d="M34.1935 25.0458V25.2391C34.0917 28.1606 31.689 30.5 28.7427 30.5C25.915 30.5 23.586 28.3455 23.3121 25.5905C26.075 24.49 28.3062 22.3469 29.5217 19.6457C32.1631 20.024 34.1935 22.2958 34.1935 25.0458Z" fill="url(#paint2_linear_2543_3808)" stroke="url(#paint3_linear_2543_3808)" stroke-width="2"/>
<path d="M10.1016 9.60284C11.9235 6.54718 15.2649 4.5 19.0803 4.5C24.8521 4.5 29.5314 9.17928 29.5314 14.9511C29.5314 16.2318 29.2994 17.4588 28.8759 18.595C27.7665 21.5801 25.3328 23.9197 22.2872 24.9013C21.7964 25.0593 21.2888 25.1836 20.7678 25.2677" stroke="url(#paint4_linear_2543_3808)" stroke-width="2" stroke-miterlimit="10" stroke-linecap="round"/>
</g>
<defs>
<linearGradient id="paint0_linear_2543_3808" x1="1.3345" y1="17.6874" x2="10.7558" y2="22.6789" gradientUnits="userSpaceOnUse">
<stop stop-color="#1E8AF2"/>
<stop offset="1" stop-color="#05BED7"/>
</linearGradient>
<linearGradient id="paint1_linear_2543_3808" x1="1.3345" y1="17.6874" x2="10.7558" y2="22.6789" gradientUnits="userSpaceOnUse">
<stop stop-color="#1E8AF2"/>
<stop offset="1" stop-color="#05BED7"/>
</linearGradient>
<linearGradient id="paint2_linear_2543_3808" x1="22.4358" y1="22.5932" x2="29.2091" y2="26.1827" gradientUnits="userSpaceOnUse">
<stop stop-color="#1E8AF2"/>
<stop offset="1" stop-color="#05BED7"/>
</linearGradient>
<linearGradient id="paint3_linear_2543_3808" x1="22.4358" y1="22.5932" x2="29.2091" y2="26.1827" gradientUnits="userSpaceOnUse">
<stop stop-color="#1E8AF2"/>
<stop offset="1" stop-color="#05BED7"/>
</linearGradient>
<linearGradient id="paint4_linear_2543_3808" x1="10.3282" y1="10.938" x2="20.8085" y2="16.1328" gradientUnits="userSpaceOnUse">
<stop stop-color="#1E8AF2"/>
<stop offset="1" stop-color="#05BED7"/>
</linearGradient>
<clipPath id="clip0_2543_3808">
<rect width="36" height="36" fill="white"/>
</clipPath>
</defs>
</svg>
