<svg width="30" height="40" viewBox="0 0 30 40" fill="none" xmlns="http://www.w3.org/2000/svg">
<path fill-rule="evenodd" clip-rule="evenodd" d="M14.6442 32.2417H14.6946C15.7694 30.7376 17.0843 30.1052 18.8372 30.3538C20.6972 30.7472 21.8007 32.2858 22.8316 34.718C23.56 36.4327 25.0574 37.2069 26.6716 37.3641C23.7081 40.5756 19.7074 40.5756 14.6694 37.3641C9.62516 40.584 5.62338 40.584 2.66406 37.3641C4.28142 37.2067 5.77888 36.4202 6.50721 34.718C7.53815 32.2858 8.64164 30.7472 10.4985 30.3538C12.2545 30.1084 13.5691 30.7408 14.6442 32.2417Z" fill="#26A0F8"/>
<path fill-rule="evenodd" clip-rule="evenodd" d="M5.63175 0.195089C6.46434 0.194571 7.28608 0.383535 8.0345 0.747612C8.78292 1.11169 9.4383 1.64129 9.95082 2.29615C10.2481 1.86809 10.6084 1.48725 11.0195 1.16651V8.41364C10.9105 8.55216 10.8363 8.71468 10.8031 8.88765C10.7698 9.06062 10.7785 9.23902 10.8284 9.40796C10.8783 9.5769 10.968 9.73147 11.0899 9.85879C11.2118 9.9861 11.3625 10.0825 11.5294 10.1398C11.6962 10.1972 11.8744 10.2139 12.049 10.1885C12.2237 10.1632 12.3897 10.0965 12.5333 9.99411C12.6768 9.89168 12.7938 9.75647 12.8743 9.59976C12.9548 9.44306 12.9967 9.26939 12.9963 9.09327C12.9956 8.84727 12.9136 8.60837 12.763 8.41364V0.2328C13.097 0.125396 13.4399 0.0474963 13.7876 0V11.2964C13.2727 11.499 12.8447 11.8745 12.5776 12.3583C12.3104 12.842 12.2207 13.4037 12.324 13.9463C12.4273 14.489 12.7171 14.9787 13.1434 15.3309C13.5697 15.6832 14.1059 15.8759 14.6593 15.8759C15.2128 15.8759 15.7489 15.6832 16.1752 15.3309C16.6015 14.9787 16.8913 14.489 16.9946 13.9463C17.0979 13.4037 17.0083 12.842 16.7411 12.3583C16.4739 11.8745 16.046 11.499 15.5311 11.2964V0.0125702C15.9618 0.0705729 16.3847 0.176081 16.7921 0.32716V5.87128V7.61133H20.3546C20.4934 7.72011 20.6562 7.79418 20.8295 7.82736C21.0029 7.86055 21.1816 7.85188 21.3509 7.80208C21.5201 7.75228 21.675 7.6628 21.8026 7.5411C21.9302 7.4194 22.0267 7.26902 22.0842 7.1025C22.1417 6.93598 22.1584 6.75815 22.133 6.58386C22.1076 6.40957 22.0408 6.24387 21.9382 6.10059C21.8356 5.95731 21.7001 5.84061 21.5431 5.76022C21.386 5.67983 21.212 5.63809 21.0356 5.63848C20.7887 5.63701 20.5487 5.71907 20.3546 5.87128H18.5355V1.3844C18.8875 1.69625 19.1932 2.05645 19.4436 2.4542C19.9874 1.70642 20.712 1.10825 21.55 0.715473C22.388 0.322698 23.312 0.148108 24.2359 0.207985C25.1597 0.267862 26.0534 0.560255 26.8334 1.0579C27.6135 1.55554 28.2545 2.24223 28.6969 3.05393C29.1392 3.86562 29.3684 4.77589 29.363 5.69986C29.3577 6.62382 29.118 7.53139 28.6662 8.33792C28.2145 9.14445 27.5655 9.82369 26.7798 10.3123C25.994 10.8009 25.097 11.083 24.1726 11.1322V21.635H5.33216V11.1322C4.61252 11.1125 3.90381 10.9516 3.24649 10.6586C2.58916 10.3656 1.9961 9.94631 1.50115 9.42457C1.00621 8.90283 0.619072 8.28891 0.361855 7.61785C0.104639 6.9468 -0.0176244 6.23175 0.00204712 5.51353C0.0217186 4.79532 0.182939 4.088 0.476504 3.43197C0.77007 2.77594 1.19023 2.18404 1.713 1.69007C2.23576 1.1961 2.8509 0.809727 3.52328 0.553016C4.19566 0.296306 4.91212 0.174283 5.63175 0.193916V0.195089ZM14.645 12.1076C14.9274 12.1076 15.2033 12.1912 15.4381 12.3477C15.6728 12.5042 15.8558 12.7267 15.9638 12.987C16.0719 13.2474 16.1001 13.5338 16.045 13.8101C15.99 14.0865 15.854 14.3403 15.6544 14.5396C15.4548 14.7388 15.2004 14.8745 14.9235 14.9295C14.6466 14.9844 14.3596 14.9562 14.0988 14.8484C13.838 14.7406 13.615 14.558 13.4582 14.3237C13.3013 14.0894 13.2176 13.814 13.2176 13.5322C13.2176 13.1544 13.368 12.792 13.6357 12.5249C13.9034 12.2577 14.2665 12.1076 14.645 12.1076Z" fill="#26A0F8"/>
<path d="M2.6875 27.053V26.0022L6.14289 23.4315V24.5611L3.40289 26.5338L6.14255 28.5318V29.6614L2.6875 27.053Z" fill="#26A0F8"/>
<path d="M26.6068 27.053V26.0022L23.1484 23.4315V24.5611L25.8913 26.5338L23.1484 28.532V29.6616L26.6068 27.053Z" fill="#26A0F8"/>
<path d="M11.8027 27.1766L12.4333 27.2584C12.3508 27.593 12.1561 27.8894 11.8816 28.0984C11.5859 28.3142 11.2262 28.425 10.8601 28.413C10.6312 28.4241 10.4026 28.3871 10.1891 28.3041C9.97566 28.2212 9.78209 28.0943 9.62106 27.9316C9.29787 27.5585 9.1338 27.074 9.16394 26.5818C9.13243 26.0757 9.29855 25.5771 9.62744 25.1907C9.77995 25.0263 9.96625 24.8968 10.1736 24.811C10.3809 24.7252 10.6044 24.6851 10.8287 24.6935C11.0465 24.6861 11.2635 24.7255 11.4647 24.8091C11.666 24.8927 11.8469 25.0185 11.9951 25.1781C12.3175 25.5588 12.48 26.0492 12.4485 26.5467V26.7073H9.78496C9.77851 27.0343 9.89043 27.3527 10.1002 27.604C10.1949 27.7058 10.3102 27.7865 10.4384 27.8407C10.5666 27.8949 10.7049 27.9215 10.8441 27.9186C11.0473 27.9254 11.247 27.8645 11.4116 27.7454C11.5882 27.5988 11.7185 27.4043 11.7867 27.1853L11.8027 27.1766ZM9.81955 26.2098H11.8089C11.8017 25.9665 11.7215 25.7309 11.5788 25.5334C11.4901 25.4212 11.3764 25.3312 11.2467 25.2705C11.117 25.2099 10.9749 25.1803 10.8317 25.1841C10.702 25.1804 10.573 25.2033 10.4525 25.2515C10.3321 25.2997 10.2229 25.3721 10.1317 25.4642C9.93557 25.6637 9.82302 25.9304 9.81703 26.2098H9.81955Z" fill="#26A0F8"/>
<path d="M19.5046 27.1759L20.1351 27.2577C20.05 27.5928 19.8536 27.8892 19.5779 28.0986C19.2827 28.3129 18.9246 28.4235 18.5596 28.4131C18.3308 28.4243 18.1022 28.3872 17.8887 28.3043C17.6752 28.2213 17.4816 28.0944 17.3206 27.9318C16.9974 27.5587 16.8333 27.0742 16.8635 26.5819C16.8307 26.0762 16.9957 25.5776 17.3238 25.1908C17.4774 25.0271 17.6643 24.898 17.872 24.8123C18.0797 24.7265 18.3034 24.6861 18.528 24.6937C18.7459 24.6862 18.9628 24.7257 19.1641 24.8093C19.3654 24.8929 19.5463 25.0187 19.6945 25.1783C20.0106 25.5591 20.1683 26.0464 20.1351 26.5399C20.1351 26.5745 20.1351 26.628 20.1351 26.7003H17.4774C17.4766 27.0296 17.5953 27.3482 17.8116 27.5969C17.9064 27.6988 18.0216 27.7795 18.1499 27.8337C18.2781 27.8879 18.4163 27.9144 18.5556 27.9115C18.7586 27.9174 18.958 27.8566 19.123 27.7384C19.3035 27.593 19.4364 27.3972 19.5046 27.1759ZM17.5124 26.2098H19.5046C19.4996 25.9666 19.4204 25.7306 19.2775 25.5334C19.1886 25.4214 19.0749 25.3315 18.9452 25.2709C18.8155 25.2103 18.6735 25.1806 18.5304 25.1841C18.4007 25.1804 18.2716 25.2033 18.1512 25.2515C18.0308 25.2997 17.9216 25.3721 17.8304 25.4642C17.6354 25.6645 17.5229 25.9306 17.5152 26.2098H17.5124Z" fill="#26A0F8"/>
</svg>
